<svg width="250" height="116" viewBox="0 0 250 116" fill="none" xmlns="http://www.w3.org/2000/svg"><mask id="mask0_146_234" style="mask-type:luminance" maskUnits="userSpaceOnUse" x="89" y="0" width="72" height="70"><path d="M160.632 0H89.138V69.8113H160.632V0Z" fill="white"></path></mask><g mask="url(#mask0_146_234)"><path fill-rule="evenodd" clip-rule="evenodd" d="M99.7904 30.5533L124.856 18.4584L150.037 30.5533V32.7654L124.569 23.7445L99.7904 32.593V30.5533Z" fill="#B6202C"></path><path fill-rule="evenodd" clip-rule="evenodd" d="M124.856 38.0084L99.7904 39.9189V37.6924L124.856 31.53L150.037 37.8073V40.0194L124.856 38.0084Z" fill="#B6202C"></path><path fill-rule="evenodd" clip-rule="evenodd" d="M124.785 44.774L99.7904 44.8171V47.0293L124.785 51.2668L150.037 47.0005V44.774H124.785Z" fill="#B6202C"></path><path d="M150.037 13.2153H99.7904V13.6319H150.037V13.2153Z" fill="#B6202C"></path><path d="M150.037 14.8385H99.7904V15.2263H150.037V14.8385Z" fill="#B6202C"></path><path d="M150.037 16.4905H99.7904V16.8496H150.037V16.4905Z" fill="#B6202C"></path><path d="M150.037 18.0706H99.7904V18.4871H150.037V18.0706Z" fill="#B6202C"></path><path d="M150.037 19.6937H99.7904V20.0816H150.037V19.6937Z" fill="#B6202C"></path><path d="M150.037 21.3169H99.7904V21.7335H150.037V21.3169Z" fill="#B6202C"></path><path d="M150.037 22.9401H99.7904V23.3566H150.037V22.9401Z" fill="#B6202C"></path><path fill-rule="evenodd" clip-rule="evenodd" d="M150.037 24.592V25.0086H127.986L126.852 24.592H150.037ZM99.7904 24.592H122.258L121.124 25.0086H99.7904V24.592Z" fill="#B6202C"></path><path fill-rule="evenodd" clip-rule="evenodd" d="M150.037 26.1433V26.5599H132.81L131.676 26.1433H150.037ZM99.7904 26.1433H115.482V26.5599H99.7904V26.1433Z" fill="#B6202C"></path><path fill-rule="evenodd" clip-rule="evenodd" d="M150.037 27.8384V28.2549H137.117L135.983 27.8384H149.98H150.037ZM99.7904 27.8384H113.142L111.979 28.2549H99.7904V27.8384Z" fill="#B6202C"></path><path fill-rule="evenodd" clip-rule="evenodd" d="M150.037 29.4471V29.835H141.754L140.691 29.4471H150.095H150.037ZM99.7904 29.4471H108.562L107.428 29.835H99.7904V29.4471Z" fill="#B6202C"></path><path d="M150.037 11.5491H99.7904V11.9656H150.037V11.5491Z" fill="#B6202C"></path><path d="M150.037 9.96899H99.7904V10.3856H150.037V9.96899Z" fill="#B6202C"></path><path fill-rule="evenodd" clip-rule="evenodd" d="M158.938 55.3463V68.2743H90.7316V50.2757H96.833V62.3274H152.822V55.3463H158.924H158.938ZM90.7316 1.55139H158.953V38.7841H152.851V7.54137H96.8617V44.6735H90.7316V1.58012V1.55139Z" fill="#B6202C"></path><path d="M158.938 44.5299H152.837V58.9375H158.938V44.5299Z" fill="#B6202C"></path><path fill-rule="evenodd" clip-rule="evenodd" d="M90.7316 59.3684V47.8481L93.7895 44.889L96.833 47.8481V59.3684H90.7316Z" fill="#B6202C"></path><path fill-rule="evenodd" clip-rule="evenodd" d="M152.837 29.8351V41.3985L155.895 44.3863L158.953 41.3985V29.8351H152.837Z" fill="#B6202C"></path></g><mask id="mask1_146_234" style="mask-type:luminance" maskUnits="userSpaceOnUse" x="0" y="87" width="250" height="29"><path d="M250 87.6376H0V115.217H250V87.6376Z" fill="white"></path></mask><g mask="url(#mask1_146_234)"><path d="M20.9027 93.4983L19.3379 94.6187C18.499 93.5958 17.432 92.784 16.2226 92.2486C14.9642 91.7007 13.6038 91.4265 12.2315 91.4442C10.7023 91.4335 9.19389 91.7985 7.83852 92.5071C6.55348 93.162 5.47139 94.1553 4.70886 95.38C3.96151 96.5819 3.57299 97.9723 3.58907 99.3877C3.56614 100.451 3.77667 101.506 4.20581 102.479C4.63494 103.452 5.27223 104.319 6.0727 105.019C7.79841 106.546 10.0438 107.353 12.3464 107.274C13.6589 107.301 14.9618 107.044 16.166 106.521C17.3702 105.998 18.4472 105.221 19.3235 104.243L20.8884 105.349C19.8885 106.505 18.6358 107.414 17.2275 108.006C15.6599 108.663 13.974 108.991 12.2746 108.969C10.7477 109.052 9.22079 108.806 7.79679 108.249C6.37279 107.691 5.08482 106.835 4.01976 105.737C2.31535 103.959 1.3859 101.578 1.43563 99.1148C1.41679 97.8252 1.68084 96.5472 2.20917 95.3708C2.73751 94.1944 3.51727 93.1482 4.49351 92.306C6.62365 90.4541 9.38379 89.4924 12.2028 89.6199C13.9317 89.5928 15.6459 89.9408 17.2275 90.6398C18.6683 91.2766 19.9305 92.2583 20.9027 93.4983Z" fill="white"></path><path d="M85.3623 108.495H83.2663L76.6912 94.2595L70.0011 108.495H67.8477L76.4615 90.0795H76.8922L85.3623 108.495Z" fill="white"></path><path d="M164.365 93.4982L162.8 94.6187C161.962 93.5953 160.894 92.7835 159.685 92.2485C158.426 91.7006 157.066 91.4265 155.694 91.4441C154.165 91.4341 152.656 91.799 151.301 92.5071C150.016 93.1619 148.934 94.1553 148.171 95.38C147.424 96.5818 147.035 97.9723 147.051 99.3877C147.028 100.451 147.239 101.506 147.668 102.479C148.097 103.452 148.734 104.319 149.535 105.019C151.261 106.546 153.506 107.353 155.809 107.274C157.121 107.301 158.424 107.044 159.628 106.521C160.832 105.998 161.909 105.221 162.786 104.243L164.351 105.349C163.345 106.531 162.076 107.461 160.647 108.064C159.079 108.721 157.393 109.048 155.694 109.026C154.175 109.105 152.657 108.859 151.241 108.304C149.825 107.749 148.543 106.898 147.482 105.809C146.647 104.912 145.998 103.859 145.572 102.71C145.146 101.561 144.951 100.339 144.998 99.1147C144.979 97.8251 145.243 96.5471 145.772 95.3707C146.3 94.1943 147.08 93.1482 148.056 92.306C150.161 90.442 152.899 89.4551 155.708 89.548C157.437 89.521 159.151 89.8689 160.733 90.5679C162.166 91.2311 163.413 92.2376 164.365 93.4982Z" fill="white"></path><path d="M26.6452 94.8054V104.861L37.4268 94.8054H37.5703V108.437H35.6897V98.3822L24.9943 108.437H24.7646V94.8054H26.6596H26.6452Z" fill="white"></path><path d="M40.298 94.8054H49.9598V96.3855H46.0693V108.495H44.1886V96.3855H40.298V94.8054Z" fill="white"></path><path d="M54.5538 94.8054V104.861L65.3354 94.8054H65.4789V108.437H63.6126V98.3822L52.9172 108.437H52.6875V94.8054H54.5538Z" fill="white"></path><path d="M90.3153 94.8054V104.861L101.097 94.8054H101.24V108.437H99.3454V98.3822L88.6499 108.437H88.4202V94.8054H90.3153Z" fill="white"></path><path d="M117.506 89.6199H119.387V96.9314C119.982 96.1601 120.755 95.5452 121.64 95.1397C122.526 94.7343 123.497 94.5506 124.469 94.6043C126.448 94.5478 128.371 95.2698 129.824 96.6154C130.55 97.2637 131.127 98.0615 131.516 98.9541C131.905 99.8467 132.097 100.813 132.078 101.787C132.107 102.749 131.927 103.705 131.551 104.591C131.174 105.476 130.609 106.269 129.895 106.915C128.461 108.244 126.567 108.965 124.612 108.926C123.618 108.984 122.625 108.789 121.727 108.359C120.828 107.93 120.053 107.28 119.473 106.469V113.479H117.506V106.455C116.925 107.275 116.143 107.933 115.236 108.365C114.329 108.798 113.326 108.991 112.323 108.926C110.382 108.96 108.504 108.239 107.083 106.915C106.368 106.27 105.801 105.478 105.422 104.592C105.042 103.707 104.86 102.75 104.887 101.787C104.858 100.82 105.036 99.8577 105.41 98.9657C105.784 98.0736 106.345 97.2722 107.055 96.6154C108.512 95.2676 110.44 94.5455 112.424 94.6043C113.397 94.5404 114.372 94.7196 115.259 95.1258C116.146 95.532 116.918 96.1525 117.506 96.9314V89.6199ZM106.811 101.7C106.799 102.424 106.934 103.143 107.205 103.814C107.476 104.485 107.879 105.095 108.39 105.608C108.953 106.166 109.628 106.599 110.37 106.878C111.112 107.158 111.905 107.278 112.697 107.231C113.374 107.216 114.042 107.07 114.663 106.8C115.271 106.547 115.823 106.176 116.286 105.708C116.71 105.274 117.038 104.755 117.248 104.185C117.5 103.368 117.612 102.513 117.578 101.657C117.634 100.917 117.535 100.173 117.288 99.4734C117.041 98.7735 116.651 98.1328 116.142 97.5922C115.669 97.1268 115.108 96.7602 114.492 96.5137C113.876 96.2671 113.217 96.1454 112.553 96.1557C111.056 96.1314 109.608 96.6932 108.519 97.7214C107.964 98.2217 107.523 98.8364 107.228 99.5234C106.934 100.21 106.791 100.953 106.811 101.7ZM119.344 101.988C119.298 102.692 119.402 103.398 119.65 104.06C119.897 104.721 120.282 105.322 120.779 105.823C121.69 106.733 122.923 107.249 124.21 107.259C124.99 107.297 125.769 107.172 126.498 106.892C127.227 106.613 127.89 106.185 128.446 105.636C128.961 105.124 129.368 104.512 129.642 103.838C129.916 103.164 130.051 102.442 130.039 101.715C130.058 100.977 129.918 100.243 129.628 99.5637C129.338 98.8845 128.905 98.2758 128.359 97.7789C127.284 96.7784 125.866 96.2284 124.397 96.2419C123.734 96.2316 123.075 96.3533 122.458 96.5999C121.842 96.8464 121.281 97.213 120.808 97.6783C120.289 98.2626 119.892 98.9449 119.641 99.685C119.389 100.425 119.288 101.208 119.344 101.988Z" fill="white"></path><path d="M134.102 94.8054H143.764V96.3855H139.887V108.495H137.992V96.3855H134.102V94.8054Z" fill="white"></path><path d="M180.631 103.984L182.224 104.76C181.765 105.629 181.152 106.408 180.415 107.058C179.733 107.642 178.95 108.095 178.104 108.394C177.18 108.709 176.209 108.864 175.233 108.854C174.195 108.912 173.158 108.747 172.19 108.37C171.221 107.994 170.345 107.414 169.619 106.67C168.325 105.352 167.598 103.578 167.595 101.729C167.582 100.03 168.189 98.3855 169.303 97.1037C170.012 96.2506 170.908 95.5732 171.922 95.1246C172.935 94.676 174.039 94.4684 175.146 94.5181C176.282 94.4726 177.412 94.6871 178.452 95.1451C179.492 95.6032 180.414 96.2927 181.147 97.1611C182.231 98.4661 182.807 100.119 182.77 101.815H169.562C169.555 102.541 169.697 103.261 169.978 103.931C170.26 104.6 170.675 105.205 171.198 105.708C171.716 106.209 172.327 106.601 172.998 106.863C173.668 107.124 174.384 107.249 175.103 107.231C175.846 107.233 176.583 107.111 177.286 106.872C177.94 106.659 178.552 106.333 179.094 105.909C179.699 105.348 180.217 104.699 180.631 103.984ZM180.631 100.321C180.434 99.5011 180.056 98.7354 179.525 98.0805C179 97.4907 178.347 97.0289 177.616 96.7302C176.834 96.401 175.994 96.2348 175.146 96.2418C173.792 96.2108 172.472 96.6699 171.428 97.5346C170.581 98.2997 169.982 99.2999 169.705 100.408H180.645L180.631 100.321Z" fill="white"></path><path d="M186.631 94.8054H188.526V97.3049C189.21 96.4055 190.088 95.6736 191.096 95.1646C192.108 94.6785 193.218 94.4327 194.341 94.4463C196.333 94.4098 198.258 95.1639 199.696 96.5435C200.403 97.175 200.967 97.9501 201.351 98.817C201.734 99.684 201.929 100.623 201.921 101.571C201.933 102.529 201.743 103.479 201.362 104.358C200.981 105.237 200.418 106.025 199.71 106.67C199.006 107.353 198.175 107.89 197.263 108.25C196.352 108.609 195.378 108.786 194.398 108.768C193.29 108.78 192.192 108.55 191.182 108.093C190.166 107.616 189.261 106.931 188.526 106.082V113.479H186.631V94.8054ZM194.197 96.2419C193.439 96.2223 192.685 96.3532 191.978 96.6268C191.271 96.9005 190.625 97.3116 190.077 97.8363C189.534 98.3384 189.103 98.9501 188.813 99.631C188.524 100.312 188.382 101.047 188.397 101.787C188.376 102.77 188.635 103.739 189.143 104.581C189.651 105.423 190.389 106.103 191.269 106.541C192.154 107.011 193.138 107.262 194.14 107.274C195.144 107.279 196.132 107.027 197.011 106.541C197.895 106.066 198.634 105.362 199.15 104.501C199.668 103.677 199.942 102.724 199.942 101.751C199.942 100.777 199.668 99.824 199.15 98.9999C198.639 98.1437 197.905 97.4434 197.025 96.9745C196.157 96.502 195.186 96.2504 194.197 96.2419Z" fill="white"></path><path d="M209.243 108.495H204.936V94.8054H209.128C210.369 94.6894 211.607 95.0545 212.588 95.8253C212.922 96.1286 213.19 96.4988 213.373 96.912C213.556 97.3252 213.65 97.7722 213.65 98.2241C213.7 98.8558 213.531 99.4854 213.174 100.008C212.816 100.531 212.29 100.915 211.683 101.097C212.508 101.271 213.247 101.728 213.771 102.389C214.295 103.05 214.572 103.873 214.554 104.717C214.574 107.235 212.803 108.495 209.243 108.495ZM206.874 96.3855V100.695H208.166C208.9 100.72 209.636 100.677 210.362 100.566C210.738 100.461 211.073 100.246 211.324 99.9479C211.641 99.588 211.805 99.1195 211.784 98.6407C211.803 98.1205 211.635 97.6107 211.31 97.2043C211.068 96.8706 210.718 96.6317 210.319 96.5291C209.606 96.4266 208.886 96.3785 208.166 96.3855H206.874ZM206.874 102.246V107.015H208.898C209.587 107.04 210.276 106.982 210.951 106.843C211.376 106.723 211.75 106.465 212.013 106.11C212.346 105.625 212.497 105.037 212.439 104.451C212.382 103.865 212.119 103.318 211.697 102.907C211.14 102.442 210.427 102.206 209.702 102.246H206.831H206.874Z" fill="white"></path><path d="M219.794 94.8054V104.861L230.576 94.8054H230.72V108.437H228.839V98.3822L218.143 108.437H217.914V94.8054H219.809H219.794Z" fill="white"></path><path d="M249.368 97.6783L247.933 98.5402C246.728 97.1692 245.037 96.3204 243.218 96.173C241.4 96.0256 239.595 96.5911 238.185 97.7502C237.624 98.2306 237.176 98.8281 236.871 99.5006C236.565 100.173 236.411 100.904 236.419 101.643C236.406 102.66 236.69 103.659 237.237 104.516C237.78 105.391 238.556 106.097 239.477 106.556C240.465 107.052 241.558 107.303 242.664 107.288C243.659 107.301 244.644 107.089 245.546 106.669C246.448 106.248 247.244 105.63 247.875 104.861L249.311 105.78C248.576 106.785 247.584 107.574 246.44 108.064C245.169 108.619 243.792 108.894 242.406 108.868C240.301 108.935 238.249 108.201 236.663 106.814C235.936 106.201 235.354 105.436 234.956 104.571C234.559 103.707 234.358 102.766 234.366 101.815C234.362 100.511 234.736 99.234 235.443 98.138C236.163 97.004 237.181 96.0898 238.386 95.4949C239.699 94.8335 241.151 94.4985 242.621 94.5182C243.594 94.5107 244.562 94.6512 245.492 94.9347C246.31 95.1697 247.085 95.5334 247.789 96.012C248.418 96.4606 248.954 97.0264 249.368 97.6783Z" fill="white"></path></g></svg>